<?xml version="1.0" encoding="UTF-8"?>
<!DOCTYPE svg PUBLIC "-//W3C//DTD SVG 1.1//EN" "http://www.w3.org/Graphics/SVG/1.1/DTD/svg11.dtd">
<!-- Creator: CorelDRAW -->
<svg xmlns="http://www.w3.org/2000/svg" xml:space="preserve" width="95mm" height="85mm" style="shape-rendering:geometricPrecision; text-rendering:geometricPrecision; image-rendering:optimizeQuality; fill-rule:evenodd; clip-rule:evenodd"
viewBox="0 0 95 85"
 xmlns:xlink="http://www.w3.org/1999/xlink">
 <defs>
  <style type="text/css">
   <![CDATA[
    .fil0 {fill:black}
    .fil1 {fill:black;fill-rule:nonzero}
   ]]>
  </style>
 </defs>
 <g id="Layer_x0020_1">
  <metadata id="CorelCorpID_0Corel-Layer"/>
  <g id="_46885168">
   <path id="_46870792" class="fil0" d="M74.6882 13.7697c1.4816,1.1454 2.5817,2.4299 3.8489,3.667 0.6246,0.6098 0.5836,0.3625 0.6935,0.8347 -2.3082,-1.6311 -4.2763,-2.4777 -6.8251,-3.5488 -1.898,-0.6665 -3.7142,-1.2363 -5.6727,-1.7411 -0.8402,-0.2166 -2.6107,-0.5522 -3.4001,-0.537 0.4943,-0.7098 0.6099,-0.8088 1.7427,-1.2719 1.5458,-0.6319 3.4612,-0.2864 4.9667,0.0677 1.7856,0.42 3.2006,1.4121 4.6461,2.5294zm-50.5777 4.8862c0.0495,-0.2303 1.8771,-2.101 2.2132,-2.4289 0.3438,-0.3355 0.2779,-0.1791 1.4378,-1.347l1.591 -1.3041c0.6086,-0.3867 1.8718,-1.5311 2.7955,-1.8636 1.7521,-0.6307 5.0335,-1.434 7.012,-0.3072 0.8968,0.5107 0.9222,0.976 0.9259,0.955 0.003,-0.017 0.0104,0.0522 0.007,0.0781l-7.8067 2.0635c-1.8043,0.6137 -4.9129,2.1078 -6.5593,3.1002 -0.3651,0.2201 -0.5301,0.2891 -0.8984,0.5371l-0.718 0.5169zm29.8888 -12.443l2.9142 0.2264c1.1919,0.2208 4.8565,0.7429 5.6537,1.3182 -0.8244,0.6748 -0.7652,0.3443 -1.2758,0.799 -1.5284,1.3612 -1.0938,0.5073 -2.5086,3.0791l-4.786 -0.179 0.0025 -5.2437zm-12.8339 1.3533c0.4471,-0.0076 0.6791,-0.1124 1.0935,-0.2223 2.0202,-0.5356 5.4162,-1.1201 7.4707,-1.1274l-0.0059 5.2403c-1.265,0.1289 -3.3315,0.3887 -4.5356,0.3855 -0.8616,-1.211 -1.6113,-2.4394 -2.8966,-3.2849 -1.3274,-0.8732 -0.9198,-0.3408 -1.1261,-0.9912zm-22.8225 11.5042l-0.3741 0.6611c-0.0145,0.0237 -0.0359,0.0563 -0.051,0.0795l-1.1808 1.9803c-0.206,0.3222 -0.3347,0.484 -0.5226,0.9663 2.6662,-0.1728 5.8017,-0.0114 8.5221,-0.013 1.0381,-0.0006 1.1687,-0.35 2.2096,-1.033 4.0428,-2.6528 8.5896,-4.3713 13.3402,-5.2245 0.5436,-0.0976 0.1208,-0.0776 0.6885,-0.1644 -0.5251,2.0052 0.1211,0.4833 -0.9103,3.209 -0.0123,0.0325 -0.0233,0.0684 -0.0351,0.1011 -0.0117,0.0323 -0.0217,0.0683 -0.0331,0.1004 -0.2252,0.6326 -1.1923,2.3305 -1.544,2.9858l5.1077 0.0152c-0.0035,-0.448 1.0092,-2.3076 1.4183,-3.9471 0.3698,-1.4817 0.2461,-1.3288 0.3068,-3.0133 0.3456,-0.0488 0.5947,-0.0199 0.9348,-0.0838 0.3618,-0.0678 3.5129,-0.3673 3.5378,-0.3593l0.0509 7.2994 4.1484 0 -0.0123 -7.2613c0.4176,-0.1652 3.4821,0.163 4.3226,0.173 0.0457,0.9044 0.067,2.1336 0.267,3.0092 0.3168,1.388 1.5538,3.9435 1.6141,4.175l4.9368 0.0015c-0.9555,-1.9052 -2.3686,-4.2566 -2.3221,-6.3845 1.7317,0.2268 3.4062,0.5449 5.1047,1.0649 0.4533,0.1387 0.9005,0.355 1.3428,0.4611l3.4332 1.352c0.7865,0.3977 1.6267,0.7597 2.2688,1.1936l0.6334 0.3946 0.7588 0.4421c0.0333,0.0208 0.126,0.081 0.1586,0.1023 0.4261,0.2795 1.1659,0.7161 1.3004,0.9895 0.7502,0.2095 0.1281,0.2782 0.9448,0.3902l8.7531 -0.0006c-0.1724,-0.9834 -3.1303,-5.2794 -4.2112,-6.4446l-1.3175 -1.4553c-1.727,-1.7359 -3.7762,-3.6684 -5.7725,-5.046 -0.1949,-0.1345 -0.2485,-0.2103 -0.4384,-0.3669 -2.3141,-1.908 -5.1908,-2.972 -7.8501,-4.1499 -1.9381,-0.8587 -5.8828,-1.9702 -7.8309,-2.3166 -16.2036,-2.8802 -31.8266,2.8896 -41.6982,16.117z"/>
   <path id="_46871032" class="fil0" d="M75.448 28.9211c-0.1125,0.4437 -0.2054,0.7841 -0.3153,1.2294 -0.098,0.397 -0.1159,0.9123 -0.3142,1.3377 -0.0306,0.9841 -0.7658,2.4842 -0.7923,3.5027l4.6267 0.001c-0.3337,1.6757 -0.6053,3.4331 -1.1879,5.0311l-6.2247 0.0178c0.088,0.527 -0.113,0.7874 -0.2101,1.315 -0.2257,1.2248 -0.6329,2.4218 -0.8618,3.6469 -0.0886,0.474 -0.0837,0.533 -0.1818,0.9263l-0.5916 2.5134c-0.1125,0.44 -0.3894,1.2849 -0.3638,1.6656l6.1207 0.0476 -0.859 3.9908c-0.0432,0.1807 -0.0725,0.2806 -0.0978,0.4675 -0.2293,0.4954 -0.0789,0.4108 -0.2158,0.8401 -0.2011,0.6306 -0.0915,0.362 -0.4138,0.5283l-4.4876 0.0019 -0.6465 2.3635c-0.2235,0.8475 -0.3629,1.6634 -0.5575,2.4332 -0.0162,0.0637 -0.0516,0.2055 -0.0769,0.3067l-1.0189 4.5879c3.9728,0.1796 8.4547,0.0565 12.4698,0.0297 1.3824,-0.0092 1.4305,-0.639 2.5041,-1.3339l2.2572 -1.6784c0.3739,-0.3039 0.5677,-0.4726 0.9122,-0.6835 0.5675,-0.3473 1.6649,-1.2981 2.2988,-1.7882 0.2084,-0.1611 0.0187,-0.0447 0.2263,-0.1545 0.3806,-0.2011 0.0857,-0.0555 0.3513,-0.1268 0.0669,-0.6476 0.1385,-0.7898 0.2419,-1.3625 0.0753,-0.4167 0.1927,-0.8886 0.2779,-1.2178l0.6074 -2.4381c0.2753,-1.0202 1.0519,-4.2579 1.0536,-5.0199 -1.3671,-1.4236 -2.5124,-3.0333 -3.8687,-4.5275 0.4215,-0.3626 1.312,-1.1953 1.7203,-1.4421l2.2315 -1.7281c0.0228,-0.0168 0.0525,-0.0424 0.0746,-0.0598 0.3233,-0.2547 0.1401,-0.2224 0.4884,-0.3762 1.1215,-1.3772 1.4392,-0.5766 1.7335,-1.8881l1.4965 -6.3868c0.3664,-2.1622 0.926,-1.4585 -0.3178,-3.1989 -0.1083,-0.1516 -0.1069,-0.1418 -0.2483,-0.288 -0.7098,-0.7343 -3.1818,-4.4705 -4.1425,-4.5564 -0.5038,-0.045 -1.3135,0.0038 -1.8538,0.002l-11.1598 0.0106c0.0805,0.9017 -0.4455,2.5165 -0.6845,3.4588z"/>
   <path id="_46870840" class="fil0" d="M5.5492 38.1154c-0.0961,0.2162 -0.5014,1.8414 -0.548,2.1112 0.3581,0.5058 0.4454,0.432 0.8346,1.0535 0.2582,0.4124 0.5794,0.5768 0.7363,0.9263 0.5253,0.4805 2.0553,2.4034 2.338,2.9037l-2.4601 1.9165c-1.1849,0.9064 -3.4882,2.5135 -3.8371,3.9566 -0.1979,0.8183 -0.3807,1.6281 -0.5605,2.4213l-0.5759 2.4985c-0.1271,0.4909 -0.7625,2.7258 -0.7712,3.0844 0.0043,0.8662 -0.1097,0.6901 0.3909,1.1754 0.4023,0.39 0.3571,0.4694 0.6542,0.8023 1.0188,1.2223 2.9889,3.2859 3.7489,4.637 0.5979,-0.189 11.4694,-0.1484 13.1062,-0.1658 0.3434,-0.4419 0.4234,-1.9198 0.7629,-2.4218 0.038,-0.7185 0.6711,-3.2813 0.9052,-4.1498l0.6617 -2.8321 -4.6532 -0.0577 0.9601 -4.3958c0.0271,-0.1138 0.0846,-0.3652 0.0945,-0.4084 0.1986,-0.8638 0.0034,-0.7429 0.3978,-0.8328l5.929 -0.0802c0.4788,-1.1489 0.6182,-3.0925 0.9738,-3.3527 0.0184,-0.6007 0.18,-1.3402 0.3055,-1.8618 0.1517,-0.6301 0.2656,-1.2903 0.4702,-1.4454 0.0667,-1.6596 0.6211,-2.3687 0.5736,-3.3193l-6.0082 -0.0473 -0.0816 -0.2417c0.0754,-0.2237 0.1387,-0.5797 0.2072,-0.8593 0.2099,-0.8564 0.4341,-1.7013 0.659,-2.5953 0.0978,-0.3889 0.128,-0.5604 0.23,-0.9922 0.1883,-0.797 0.1451,-0.5801 2.4496,-0.5532l1.9911 0.0003c0.5805,-2.6701 1.0675,-4.8246 1.6752,-7.3442 0.1829,-0.7587 0.4569,-1.6456 0.4611,-2.3913l-12.9284 0.0583c-0.0742,0.213 0.0479,0.0211 -0.1167,0.2351l-6.9126 5.2108c-0.5859,0.3609 -0.4168,0.5604 -0.7231,1.7774l-0.872 3.4968c-0.0996,0.5127 -0.0992,0.635 -0.2361,1.1315l-0.2319 0.9512z"/>
   <path id="_46871200" class="fil0" d="M28.1674 34.7829l1.3147 -0.0046 1.5269 0.0007c1.1564,-0.0036 0.8275,-0.0714 1.3274,0.7343 0.616,0.9931 1.2354,1.8943 1.8609,2.9034 0.1262,0.1835 0.1175,0.1745 0.2571,0.3939 0.2424,0.3808 0.4008,0.6081 0.5802,0.9409l1.6446 2.5223c0.402,0.6076 1.6725,2.3971 1.9629,3.0432l1.8703 2.8756c0.0877,0.1269 0.1394,0.1843 0.2156,0.3053 3.6198,5.7462 7.3123,11.4466 10.9716,17.1717 0.4928,0.0468 10.3156,0.1261 11.7148,0.0433 0.3619,-0.0214 0.4208,0.0837 0.6403,-0.3129 0.2367,-0.4275 -0.0589,0.2019 0.1171,-0.3877 0.0062,-0.0206 0.0205,-0.0665 0.0253,-0.0826 0.0046,-0.0154 0.009,-0.0566 0.026,-0.0781l0.8525 -3.7854c0.0278,-0.1148 0.0617,-0.2469 0.0829,-0.3338l0.2975 -1.3961c0.271,-1.0834 0.6592,-2.2815 0.765,-3.3449l-3.8645 -0.0462 -1.52 -2.4538c-1.167,-1.7913 -2.3235,-3.614 -3.5234,-5.4637 -0.2037,-0.3288 -0.2756,-0.4059 -0.4977,-0.8103l-1.417 -2.1707c-0.0555,-0.0798 -0.1082,-0.1473 -0.159,-0.2309l-0.5839 -0.9824c-0.1179,-0.1683 -0.2318,-0.3396 -0.3192,-0.4746 -0.0679,-0.1049 -0.1063,-0.1702 -0.1532,-0.2424 -0.0153,-0.0236 -0.0361,-0.0565 -0.0515,-0.0798l-1.3361 -2.1041c-0.015,-0.0243 -0.034,-0.0583 -0.0492,-0.0824l-0.8444 -1.2617c-0.1722,-0.2609 -0.0789,-0.0747 -0.2647,-0.3979 -0.09,-0.1566 -0.1363,-0.2791 -0.2308,-0.4402l-8.0341 -12.419c-0.0156,-0.0234 -0.0365,-0.0562 -0.0522,-0.0797 -0.0156,-0.0237 -0.0364,-0.0565 -0.0521,-0.0802 -0.0158,-0.0237 -0.0366,-0.0564 -0.0525,-0.0801 -0.2264,-0.3388 -0.2819,-0.3247 -0.4376,-0.8297l-9.4688 -0.0055c-2.1245,-0.0009 -2.7816,-0.4441 -3.0542,0.8209 -0.0643,0.2985 -0.0816,0.3933 -0.1538,0.6802 -0.1137,0.4523 -0.159,0.6352 -0.2813,1.1433 -0.58,2.4085 -1.0473,4.4291 -1.6524,6.8824z"/>
   <path id="_46870912" class="fil0" d="M53.5657 32.2378c-0.7896,0.8049 -0.6146,0.4357 -1.118,0.8622 -0.3801,0.3219 -0.7067,0.6505 -0.9764,1.0551l1.802 2.8669c0.0151,0.0241 0.0347,0.0578 0.05,0.0815l2.7805 4.2246 0.4886 0.8383c0.3243,0.4859 0.6192,1.0817 1.1345,1.3723l3.5365 -3.0748c0.3659,-0.3713 0.4643,-0.5056 0.9148,-0.8181 0.3377,-0.2344 0.5001,-0.4356 0.822,-0.7427 1.1238,-1.0725 2.7708,-2.5612 3.9804,-3.5577l4.0771 -0.3555c0.3649,-0.214 0.1881,-0.018 0.3636,-0.6327 0.1529,-0.5351 -0.0551,-0.541 0.2482,-0.684 0.03,-0.5961 0.615,-2.9733 0.8054,-3.7468l0.7533 -3.2054c0.1664,-0.5289 -0.092,-0.175 0.1963,-0.4261l0.0175 -0.8295 -12.4774 -0.0006c-0.0716,0.2327 0.0587,0.0002 -0.159,0.2888 -0.0538,0.0713 -0.1781,0.2004 -0.2468,0.2698 -2.0645,2.0867 -4.7646,4.1148 -6.9931,6.2144z"/>
   <path id="_46886920" class="fil0" d="M35.6129 48.1293c-0.47,0.7743 -0.8231,0.8589 -1.2616,1.1855 -0.8043,0.599 -2.4862,2.4261 -3.2853,2.9222 -0.5838,0.4538 -1.1752,1.2106 -1.5572,1.4814 -1.4846,1.0523 -0.65,0.5583 -1.6921,1.4692 -0.915,0.7998 -0.7403,0.7619 -1.2396,0.7953l-2.8534 0.0022c-0.4317,1.1976 -0.6512,2.5439 -0.9321,3.6941l-0.741 3.2084c-0.0957,0.4335 -0.3086,0.9769 -0.3157,1.3615l-0.215 1.2553c3.1378,0.0063 6.2756,-0.0032 9.4134,0.0004 3.8966,0.0045 4.5889,-2.3385 7.5418,-4.8005 0.661,-0.5511 0.2607,0.0039 1.5101,-1.2638 1.1687,-1.186 1.8514,-1.6499 2.9465,-2.5363l-1.6747 -2.7279c-0.1716,-0.2664 -0.224,-0.3519 -0.4201,-0.6286 -0.0847,-0.1196 -0.1605,-0.2244 -0.2188,-0.311 -0.6371,-1.0673 -1.0872,-1.7361 -1.7379,-2.7328 -0.1225,-0.1876 -0.2516,-0.4188 -0.3405,-0.5861l-1.4489 -2.2453c-0.0087,-0.0122 -0.1718,-0.2182 -0.1739,-0.2207l-0.1952 -0.2229 -0.8344 0.7222c-0.2779,0.2063 -0.0845,0.0941 -0.2744,0.1782z"/>
   <path id="_46886248" class="fil1" d="M19.4829 70.8245c-0.1877,0.0034 -0.3719,0.0417 -0.5562,0.1216 -0.1807,0.0765 -0.3406,0.1843 -0.4762,0.3233l-6.2463 6.2394 0 0 -1.1228 1.1227 0.4832 -1.3834 0 0 -0.6743 -5.8119 -0.0835 -0.6117 -5.5581 0 -0.0139 2.4227 -3.9348 9.2705 3.4239 0c0.1772,-0.0035 0.351,-0.0383 0.5214,-0.1078 0.1703,-0.0695 0.3232,-0.1634 0.4553,-0.2815 0.1321,-0.1217 0.2329,-0.2538 0.2955,-0.4067 0.1877,-0.438 0.3371,-0.7926 0.4553,-1.0672 0.1182,-0.2746 0.2121,-0.497 0.2816,-0.6639 0.0695,-0.1668 0.1321,-0.3093 0.1807,-0.424 0.0487,-0.1147 0.0974,-0.2295 0.146,-0.3442 0.0522,-0.1181 0.1113,-0.2641 0.1877,-0.4379 0.073,-0.1738 0.1704,-0.4032 0.2955,-0.6918l0.0417 0.2677 0 -0.0035 0.8273 3.549c0.0278,0.1842 0.1112,0.3337 0.2572,0.4414 0.146,0.1113 0.3302,0.1669 0.5527,0.1704l2.3254 0c0.1877,-0.0035 0.372,-0.0417 0.5562,-0.1217 0.1807,-0.0765 0.3406,-0.1842 0.4762,-0.3233l3.5142 -3.98 -1.4773 3.483c-0.066,0.1668 -0.0799,0.3198 -0.0417,0.4588 0.0417,0.1425 0.1217,0.2572 0.2468,0.3476 0.1251,0.0869 0.2816,0.1321 0.4693,0.1356l3.2882 0 4.9637 -11.6932 -4.0599 0 0 0zm15.7948 0.0243l-5.7075 0.0069 -0.007 1.7207 -8.6204 8.6899 -1.3313 1.2966 3.104 0 1.8319 -0.0278c0.2433,-0.0035 0.4519,-0.0661 0.6291,-0.1808 0.1773,-0.1182 0.3511,-0.2642 0.5214,-0.4414l-1.2061 -0.584 7.7827 0 0.1043 0.6778c0.0278,0.1599 0.1008,0.2885 0.2224,0.3824 0.1182,0.0938 0.2677,0.1425 0.445,0.146l4.3067 0.0312 -2.0752 -11.7175zm-5.9717 7.2405l2.5097 -2.9616 0.2989 2.9616 -2.8086 0zm19.0658 -7.2614l-0.0139 2.3985 -2.1968 5.1688 1.3174 0.6361 -7.8871 0c-0.1772,0.0034 -0.351,0.0382 -0.5214,0.1077 -0.1703,0.0695 -0.3232,0.1634 -0.4553,0.285 -0.1321,0.1182 -0.2294,0.2538 -0.2955,0.4033l-1.147 2.6973 8.1511 0c0.5145,0 1.0255,-0.0834 1.5364,-0.2398 0.5145,-0.1599 0.9976,-0.3789 1.453,-0.6605 0.4588,-0.2815 0.8586,-0.6083 1.2062,-0.9802 0.3476,-0.3684 0.6152,-0.7682 0.7994,-1.1957l3.6602 -8.6205 -5.6067 0zm18.746 0.0105c-0.1947,0 -0.3824,0.0382 -0.5701,0.1182 -0.1877,0.0764 -0.3545,0.1807 -0.5005,0.3128 -0.146,0.1321 -0.2538,0.2815 -0.3268,0.4484l-3.0345 7.1431c-0.0209,0.0487 -0.0626,0.0904 -0.1286,0.1321 -0.0661,0.0383 -0.1321,0.0591 -0.2051,0.0626l-6.2498 0 1.3174 -0.6361 2.7877 -6.5627c0.073,-0.1772 0.0869,-0.3406 0.0452,-0.497 -0.0417,-0.153 -0.1321,-0.2781 -0.2676,-0.3754 -0.1391,-0.0939 -0.3129,-0.146 -0.5249,-0.146l-4.2998 0 -0.0139 2.3949 -2.5549 6.0204c-0.1877,0.4519 -0.2641,0.876 -0.2294,1.2722 0.0383,0.3963 0.1738,0.7474 0.4032,1.0498 0.2329,0.3024 0.5492,0.5422 0.9455,0.7126 0.3997,0.1738 0.8621,0.2607 1.3974,0.2641 0.7994,0.0035 1.7866,0.007 2.965,0.007 1.1783,0.0035 1.9152,0.0035 2.2107,0.0035 0.292,0.0034 0.5596,0.0034 0.796,0.0034 0.2398,0 0.3858,0 0.4414,0 0.0591,0 0.0591,0 0.0035,0 -0.0556,0 -0.1355,0 -0.2363,0 -0.1043,0 -0.1982,0 -0.2781,0 -0.0834,0 -0.1217,0 -0.1182,0 0.0069,0 0.0869,0 0.2468,0 0.1564,0 0.4275,0 0.8064,0 0.0035,0 0.0035,0 0.007,0 0.5144,0 1.0254,-0.0834 1.5364,-0.2398 0.5109,-0.1599 0.9941,-0.3789 1.4494,-0.6604 0.4554,-0.2816 0.8586,-0.6049 1.2027,-0.9768 0.3476,-0.3719 0.6153,-0.7682 0.7995,-1.1957l3.6741 -8.6552 -3.4968 0zm16.0868 0.0417l-11.3386 0 -0.0105 2.4227 -3.9417 9.2844 3.6637 0c0.1772,0 0.351,-0.0348 0.5214,-0.1043 0.1703,-0.0695 0.3197,-0.1668 0.4518,-0.285 0.1321,-0.1182 0.2329,-0.2538 0.299,-0.4032l0.8481 -1.9987 2.9372 -0.0105c0,0 0,0 0.0035,0l1.2062 2.9859c0.0173,0 0.0312,0 0.0451,0 0.0209,0 0.0348,0 0.0418,0 0.0069,0 0.0104,0 0.0069,0 0.0452,0 0.139,0 0.285,0 0.1426,0 0.3615,0 0.6535,0 0.292,0 0.6848,0 1.1714,0 0.4901,0 1.0984,0 1.8284,0 0.2155,-0.0035 0.4032,-0.0625 0.5596,-0.1703 0.1564,-0.1112 0.2677,-0.2468 0.3302,-0.4102 0.0591,-0.1668 0.0557,-0.3337 -0.0173,-0.504l-1.0498 -2.3185c0.4588,-0.1842 0.8829,-0.4136 1.2722,-0.6882 0.3893,-0.2746 0.73,-0.577 1.0185,-0.9107 0.2885,-0.3372 0.5144,-0.6883 0.6709,-1.0567l1.074 -2.5271c0.1877,-0.4553 0.2642,-0.8829 0.226,-1.2826 -0.0383,-0.3963 -0.1738,-0.7473 -0.4102,-1.0497 -0.2329,-0.3025 -0.5527,-0.5388 -0.9489,-0.7091 -0.3998,-0.1738 -0.8656,-0.2607 -1.3974,-0.2642l0 0zm-2.1725 3.5107l-0.7056 1.665c-0.0452,0.1008 -0.1321,0.1877 -0.2537,0.2607 -0.1182,0.0695 -0.2434,0.1078 -0.3754,0.1112l-4.5675 0 0.6674 -1.5676 -1.2757 -0.6153c0.0035,0 0.0939,0 0.2711,0 0.1808,0 0.4206,0 0.7196,0 0.3024,0 0.643,0 1.0184,0 0.3754,0 0.7647,0 1.1645,0 0.4032,0 0.789,0 1.1679,0 0.3754,0 0.7126,0 1.015,0 0.3024,0 0.5423,0 0.7195,0 0.1773,0 0.2677,0 0.2746,0 0.0452,0 0.0869,0.007 0.1147,0.0174 0.0279,0.0104 0.0487,0.0209 0.0557,0.0348 0.0069,0.0069 0.0104,0.0208 0.0069,0.0382 -0.0035,0.0174 -0.0069,0.0348 -0.0174,0.0556l0 0z"/>
  </g>
 </g>
</svg>
